{"title":"Son.of.Batman.2014.BRRip.x264.AC3-MiLLENiUM","uid":9973605,"size":546310464,"categoryP":"video","categoryS":"movies","magnet":"?xt=urn:btih:fd0760625d243ca46d7969e213340ba6e62f64c6&amp;dn=Son.of.Batman.2014.BRRip.x264.AC3-MiLLENiUM&amp;tr=udp%3A%2F%2Ftracker.openbittorrent.com%3A80&amp;tr=udp%3A%2F%2Fopen.demonii.com%3A1337&amp;tr=udp%3A%2F%2Ftracker.coppersurfer.tk%3A6969&amp;tr=udp%3A%2F%2Fexodus.desync.com%3A6969","seeders":0,"leechers":1,"uploader":"xxxlavalxxx","files":-1,"time":1397658939,"description":"\n &lt;a href=&quot;\nhttp://www.imdb.com/title/tt3139072/&quot; rel=&quot;nofollow&quot; target=&quot;_NEW&quot;&gt;\nhttp://www.imdb.com/title/tt3139072/&lt;/a&gt;\n\n\nBatman learns he has a violent, unruly pre-teen son, secretly raised by the terrorist group the League of Assassins.\n\nDirector: Ethan Spaulding\nWriters: Bob Kane (characters), Grant Morrison (comic book)\nStars: Jason O'Mara, Stuart Allan, Thomas Gibson\nGenres: Animation | Action | Adventure | Crime | Drama | Family | Fantasy | Mystery\nCountry: USA\nLanguage: English\n\n\nSample Included: Yes :)\n\nSource...............: BluRay,Thanks\n\n\n\nGeneral\nUnique ID                                : 244319788160540980696191031713368170995 (0xB7CE479407163F3DAD1D6D4FB884E1F3)\nComplete name                            : Son.of.Batman.2014.BRRip.x264.AC3-MiLLENiUM.mkv\nFormat                                   : Matroska\nFormat version                           : Version 2\nFile size                                : 511 MiB\nDuration                                 : 1h 14mn\nOverall bit rate                         : 963 Kbps\nEncoded date                             : UTC 2014-04-16 10:17:47\nWriting application                      : mkvmerge v6.5.0 ('Isn't she lovely') built on Oct 20 2013 12:50:05\nWriting library                          : libebml v1.3.0 + libmatroska v1.4.1\n\nID                                       : 1\nFormat                                   : AVC\nFormat/Info                              : Advanced Video Codec\nFormat profile                           : &lt;a class=&quot;__cf_email__&quot; href=&quot;/cdn-cgi/l/email-protection&quot; data-cfemail=&quot;b2fadbd5daf2fe819c82&quot;&gt;[email&amp;#160;protected]&lt;/a&gt;&lt;script cf-hash='f9e31' type=&quot;text/javascript&quot;&gt;\n/* &lt;![CDATA[ */!function(){try{var t=&quot;currentScript&quot;in document?document.currentScript:function(){for(var t=document.getElementsByTagName(&quot;script&quot;),e=t.length;e--;)if(t[e].getAttribute(&quot;cf-hash&quot;))return t[e]}();if(t&amp;&amp;t.previousSibling){var e,r,n,i,c=t.previousSibling,a=c.getAttribute(&quot;data-cfemail&quot;);if(a){for(e=&quot;&quot;,r=parseInt(a.substr(0,2),16),n=2;a.length-n;n+=2)i=parseInt(a.substr(n,2),16)^r,e+=String.fromCharCode(i);e=document.createTextNode(e),c.parentNode.replaceChild(e,c)}}}catch(u){}}();/* ]]&gt; */&lt;/script&gt;\nFormat settings, CABAC                   : Yes\nFormat settings, ReFrames                : 3 frames\nCodec ID                                 : V_MPEG4/ISO/AVC\nDuration                                 : 1h 14mn\nBit rate                                 : 560 Kbps\nWidth                                    : 720 pixels\nHeight                                   : 400 pixels\nDisplay aspect ratio                     : 16:9\nFrame rate mode                          : Constant\nFrame rate                               : 23.976 fps\nColor space                              : YUV\nChroma subsampling                       : 4:2:0\nBit depth                                : 8 bits\nScan type                                : Progressive\nBits/(Pixel*Frame)                       : 0.081\nStream size                              : 297 MiB (58%)\nWriting library                          : x264 core 138 r2358 9e941d1\nLanguage                                 : English\nDefault                                  : Yes\nForced                                   : No\n\nID                                       : 2\nFormat                                   : AC-3\nFormat/Info                              : Audio Coding 3\nMode extension                           : CM (complete main)\nFormat settings, Endianness              : Big\nCodec ID                                 : A_AC3\nDuration                                 : 1h 14mn\nBit rate mode                            : Constant\nBit rate                                 : 384 Kbps\nChannel(s)                               : 6 channels\nChannel positions                        : Front: L C R, Side: L R, LFE\nSampling rate                            : 48.0 KHz\nBit depth                                : 16 bits\nCompression mode                         : Lossy\nStream size                              : 204 MiB (40%)\nLanguage                                 : English\nDefault                                  : Yes\nForced                                   : No\n\n\n\nscreens\n &lt;a href=&quot;\nhttp://i.imgur.com/1evsWW5.png&quot; rel=&quot;nofollow&quot; target=&quot;_NEW&quot;&gt;\nhttp://i.imgur.com/1evsWW5.png&lt;/a&gt; &lt;a href=&quot;\nhttp://i.imgur.com/tvvY5Mx.png&quot; rel=&quot;nofollow&quot; target=&quot;_NEW&quot;&gt;\nhttp://i.imgur.com/tvvY5Mx.png&lt;/a&gt; &lt;a href=&quot;\nhttp://i.imgur.com/ODL0E1e.png&quot; rel=&quot;nofollow&quot; target=&quot;_NEW&quot;&gt;\nhttp://i.imgur.com/ODL0E1e.png&lt;/a&gt; &lt;a href=&quot;\nhttp://i.imgur.com/0PG1ZLa.png&quot; rel=&quot;nofollow&quot; target=&quot;_NEW&quot;&gt;\nhttp://i.imgur.com/0PG1ZLa.png&lt;/a&gt; &lt;a href=&quot;\nhttp://i.imgur.com/ZuBkkq7.png&quot; rel=&quot;nofollow&quot; target=&quot;_NEW&quot;&gt;\nhttp://i.imgur.com/ZuBkkq7.png&lt;/a&gt;","torrent":{"xt":"urn:btih:fd0760625d243ca46d7969e213340ba6e62f64c6","amp;dn":"Son.of.Batman.2014.BRRip.x264.AC3-MiLLENiUM","amp;tr":["udp%3A%2F%2Ftracker.openbittorrent.com%3A80","udp%3A%2F%2Fopen.demonii.com%3A1337","udp%3A%2F%2Ftracker.coppersurfer.tk%3A6969","udp%3A%2F%2Fexodus.desync.com%3A6969"],"infoHash":"fd0760625d243ca46d7969e213340ba6e62f64c6","infoHashBuffer":{"type":"Buffer","data":[253,7,96,98,93,36,60,164,109,121,105,226,19,52,11,166,230,47,100,198]},"announce":[],"urlList":[]}}